<?xml version="1.0" encoding="utf-8"?>
<!-- Generator: Adobe Illustrator 24.0.1, SVG Export Plug-In . SVG Version: 6.00 Build 0)  -->
<svg version="1.1" xmlns="http://www.w3.org/2000/svg" xmlns:xlink="http://www.w3.org/1999/xlink" x="0px" y="0px"
	 viewBox="0 0 600 600" style="enable-background:new 0 0 600 600;" xml:space="preserve">
<style type="text/css">
	.st0{fill:#218BB8;}
	.st1{fill-rule:evenodd;clip-rule:evenodd;fill:#218BB8;}
	.st2{fill:#F5F9FD;}
	.st3{fill:#A9C9DD;}
	.st4{fill:#C8DAEA;}
</style>
<g id="Livello_1">
</g>
<g id="Livello_2">
	<g id="XMLID_914_">
		<g id="XMLID_967_">
			<path id="XMLID_968_" class="st0 bg" d="M91,512.7c26.7,25.8,58.7,46.8,95.9,61.1c37.2,14.3,78.7,21.9,123.6,21.9
				c50.1,0,96.4-7.6,137.9-23.4c37.7-13.8,5.2-84-22.4-72.5c-30.5,12.9-67.8,19.6-110.2,19.6c-33.4,0-63.9-5.2-90.7-15.3
				c-26.7-10-50.1-24.3-69.2-42.9c-19.1-18.6-34.4-41.5-44.8-67.8c-11-26.7-16.2-57.3-16.2-90.7c0-31.5,5.2-61.5,15.7-88.3
				s24.8-50.6,43.9-69.7c18.6-19.6,41.5-35.3,67.8-46.3s55.8-16.7,88.3-16.7c30.1,0,57.7,4.3,82.5,11.9c24.3,7.6,45.3,19.6,63,35.3
				c17.7,15.7,31.5,34.8,41.5,57.7c10,22.9,14.8,49.6,14.8,80.2c0,17.7-1.9,34.4-5.7,50.1c-3.8,14.8-8.6,28.1-15.3,38.6
				c-6.2,10-13.4,18.1-21.9,23.9c-10,6.7-24.8,10.5-36.3,6.7c-14.3-4.8-11.4-24.8-10.5-36.7c1.4-16.2,5.7-31.5,9.1-47.2
				c5.2-25.8,11-51.1,16.2-76.3c2.9-13.8,6.2-28.1,9.1-42c3.8-17.7-9.5-34.8-28.1-34.8h-21c-12.9,0-24.3,8.6-27.7,21
				c-1.4,5.7-2.9,10.5-2.9,10.5c-10.5-32.4-49.1-41.5-79.7-41c-40.1,0.5-76.8,21-103.5,50.1c-2.4,2.9-5.2,5.7-7.6,8.6
				c-13.8,16.7-24.3,36.3-31.5,56.8c-7.6,21.9-11.5,44.4-11.5,67.3c0,19.6,2.9,38.2,8.1,54.9c5.7,17.2,13.8,32,24.3,44.4
				c10.5,12.4,23.9,22.4,39.6,29.6c15.7,7.2,33.4,11,52.5,11c14.3,0,27.7-2.4,39.6-6.7c11.5-4.3,21.9-9.5,31-15.7
				c7.2-4.8,13.8-10.5,19.1-15.7c3.3,6.2,7.2,11.5,12.4,16.7c13.4,14.3,33.9,21.5,61.1,21.5c21.5,0,42.5-4.3,62-12.9
				c19.6-8.6,37.2-22,52-39.1c14.3-17.2,26.2-38.2,34.8-63c8.6-24.8,12.9-53.4,12.9-84.9c0-42.9-8.1-81.1-23.9-113.1
				S531.9,90,505.2,68.5c-26.2-21.5-56.8-37.2-90.7-48.2c-33.4-11.5-68.2-16.7-104-16.7c-41.5,0-81.1,7.6-117.8,22.4
				c-36.7,15.3-69.2,36.3-96.4,62.5c-27.7,26.2-49.6,58.2-65.4,94S7.1,258.4,7.1,300.4c0,42.5,7.2,82.5,21.9,118.3
				C43.3,455,64.3,486.5,91,512.7z M349.1,312.3c-3.3,12.9-8.1,25.3-14.8,36.7c-6.7,11-14.8,20-25.3,27.2c-9.5,6.7-21,10-35.3,10
				c-9.1,0-16.2-1.9-21.5-5.3c-5.7-3.8-10.5-8.6-13.8-14.8c-3.8-6.7-6.2-13.8-7.6-21c-1.4-7.6-2.4-14.8-2.4-21
				c0-13.4,1.9-26.7,5.7-40.6c3.8-13.4,9.1-25.8,16.2-36.3c7.2-10.5,15.3-19.1,25.3-25.8c9.1-6.2,19.1-9.1,31-9.1
				c9.5,0,17.2,1.4,22.9,4.8c5.7,3.3,10.5,7.6,13.8,12.9c3.8,5.7,6.2,12.4,8.1,19.6c1.9,8.1,2.9,16.7,2.9,24.8
				C353.9,286.6,352.5,299,349.1,312.3z"/>
		</g>
	</g>
</g>
<g id="Livello_3">
</g>
<g id="Livello_4">
</g>
<g id="Livello_5">
</g>
<g id="Livello_6">
</g>
</svg>
