<?xml version="1.0" encoding="utf-8"?>
<!-- Generator: Adobe Illustrator 24.0.1, SVG Export Plug-In . SVG Version: 6.00 Build 0)  -->
<svg version="1.1" xmlns="http://www.w3.org/2000/svg" xmlns:xlink="http://www.w3.org/1999/xlink" x="0px" y="0px"
	 viewBox="0 0 600 600" style="enable-background:new 0 0 600 600;" xml:space="preserve">
<style type="text/css">
	.st0{fill:#218BB8;}
	.st1{fill-rule:evenodd;clip-rule:evenodd;fill:#218BB8;}
	.st2{fill:#F5F9FD;}
	.st3{fill:#A9C9DD;}
	.st4{fill:#C8DAEA;}
</style>
<g id="Livello_1">
</g>
<g id="Livello_2">
</g>
<g id="Livello_3">
</g>
<g id="Livello_4">
</g>
<g id="Livello_5">
</g>
<g id="Livello_6">
	<g id="XMLID_144_">
		<g id="XMLID_145_">
			<g id="XMLID_146_">
				<path id="XMLID_147_" class="st0 bg" d="M583.1,304c0-153-125.8-277-281-277c-16.4,0-32.4,1.4-48,4.1C229,15.5,199.3,6.4,167.4,6.4
					c-90,0-163,72-163,160.7c0,29.6,8.2,57.4,22.4,81.3c-3.7,18-5.7,36.6-5.7,55.7c0,153,125.8,277.1,281,277.1
					c17.6,0,34.8-1.6,51.4-4.6c23,12.1,49.2,19,77.1,19c90,0,163-71.9,163-160.7c0-25.6-6.1-49.8-16.9-71.3
					C580.9,344.3,583.1,324.5,583.1,304z M446.3,436.5c-13,18.1-32.2,32.5-57.1,42.7c-24.6,10.1-54.2,15.2-87.8,15.2
					c-40.4,0-74.2-7-100.6-20.8c-18.9-10-34.5-23.6-46.3-40.5c-11.9-16.9-18-33.8-18-50.1c0-10.2,4-18.9,11.8-26.1
					c7.7-7.2,17.5-10.8,29.3-10.8c9.6,0,18,2.8,24.7,8.5c6.5,5.4,12,13.4,16.5,23.8c5,11.3,10.4,20.8,16.1,28.2
					c5.5,7.2,13.5,13.3,23.6,18c10.2,4.8,23.9,7.2,40.8,7.2c23.2,0,42.3-4.9,56.6-14.6c14-9.4,20.8-20.7,20.8-34.6
					c0-10.9-3.5-19.5-10.8-26.3c-7.7-7.1-17.8-12.5-30-16.3c-12.8-3.9-30.1-8.2-51.6-12.6c-29.2-6.1-53.9-13.5-73.6-21.7
					c-20.2-8.5-36.4-20.2-48.3-34.8c-12.1-14.9-18.2-33.6-18.2-55.5c0-20.9,6.4-39.8,19.1-56.1c12.5-16.1,30.9-28.7,54.5-37.3
					c23.4-8.5,51.1-12.8,82.5-12.8c25.1,0,47.1,2.9,65.5,8.5c18.5,5.7,34.1,13.4,46.4,22.8c12.4,9.5,21.6,19.7,27.3,30.3
					c5.8,10.7,8.8,21.3,8.8,31.6c0,9.9-3.9,18.9-11.5,26.8c-7.7,7.9-17.4,11.9-28.9,11.9c-10.4,0-18.6-2.5-24.2-7.4
					c-5.3-4.6-10.7-11.8-16.8-22.1c-7-13.1-15.5-23.4-25.2-30.8c-9.5-7.1-25.2-10.7-46.9-10.7c-20.1,0-36.5,4-48.7,11.9
					c-11.7,7.6-17.4,16.2-17.4,26.5c0,6.3,1.8,11.6,5.7,16.1c4,4.8,9.6,9,16.7,12.6c7.4,3.6,15,6.6,22.6,8.6
					c7.8,2.1,20.9,5.3,38.9,9.4c22.7,4.8,43.6,10.2,62.1,16c18.7,5.9,34.9,13.2,48.1,21.7c13.5,8.6,24.1,19.7,31.7,33
					c7.6,13.3,11.4,29.7,11.4,48.8C466,397.5,459.3,418.3,446.3,436.5z"/>
			</g>
		</g>
	</g>
</g>
</svg>
