<?xml version="1.0" encoding="utf-8"?>
<!-- Generator: Adobe Illustrator 24.0.1, SVG Export Plug-In . SVG Version: 6.00 Build 0)  -->
<svg version="1.1" xmlns="http://www.w3.org/2000/svg" xmlns:xlink="http://www.w3.org/1999/xlink" x="0px" y="0px"
	 viewBox="0 0 600 600" style="enable-background:new 0 0 600 600;" xml:space="preserve">
<style type="text/css">
	.st0{fill:#218BB8;}
	.st1{fill-rule:evenodd;clip-rule:evenodd;fill:#218BB8;}
	.st2{fill:#F5F9FD;}
	.st3{fill:#A9C9DD;}
	.st4{fill:#C8DAEA;}
</style>
<g id="Livello_1">
</g>
<g id="Livello_2">
</g>
<g id="Livello_3">
	<g id="XMLID_594_">
		<path id="XMLID_596_" class="st1 bg" d="M305.4,534.5c-49.7,0-95.8-14.7-134.4-40.1l-93.9,29.9l30.5-90.1
			C78.3,394.2,61,345.1,61,292.1c0-7.9,0.4-15.8,1.2-23.5c12-122.7,116.5-218.9,243.1-218.9c128.3,0,233.8,98.6,243.5,223.5
			c0.5,6.3,0.8,12.5,0.8,18.9C549.7,425.8,440.1,534.5,305.4,534.5L305.4,534.5z M595.9,284.7C591.9,128.8,463.5,3.6,305.4,3.6
			C149.2,3.6,21.8,125.9,15,279.4c-0.1,4.2-0.3,8.4-0.3,12.7c0,54.6,15.2,105.4,41.6,149L4,595.7l161-51.2
			c41.6,22.9,89.5,35.9,140.4,35.9c160.6,0,290.6-129.1,290.6-288.4C596,289.6,596,287.2,595.9,284.7L595.9,284.7z"/>
		<path id="XMLID_595_" class="st1 bg" d="M438.6,350.3c-7.2-3.5-42.2-20.7-48.7-23c-6.5-2.4-11.3-3.5-16.1,3.5
			c-4.8,7.1-18.5,23-22.6,27.6c-4.2,4.8-8.3,5.3-15.5,1.8c-7.1-3.5-30.1-10.9-57.3-35.1c-21.1-18.6-35.5-41.8-39.6-48.8
			s-0.4-10.9,3.1-14.4c3.3-3.3,7.1-8.3,10.7-12.4c1-1.2,1.8-2.3,2.6-3.4c1.6-2.6,2.9-5,4.5-8.4c2.4-4.8,1.2-8.8-0.5-12.4
			c-1.8-3.5-16.1-38.4-22-52.5c-5.8-14.1-11.8-11.7-16.1-11.7c-4.1,0-8.8-0.7-13.6-0.7c-4.8,0-12.5,1.8-19,8.8
			c-6.5,7.1-24.9,24.2-24.9,59c0,8.2,1.5,16.3,3.7,24.1c7.2,24.9,22.7,45.4,25.4,49c3.5,4.6,49.3,78.4,121.6,106.8
			c72.5,28.2,72.5,18.8,85.6,17.5c13.1-1.1,42.2-17,48-33.6c6-16.5,6-30.6,4.2-33.6C450.4,355.6,445.6,353.8,438.6,350.3
			L438.6,350.3z"/>
	</g>
</g>
<g id="Livello_4">
</g>
<g id="Livello_5">
</g>
<g id="Livello_6">
</g>
</svg>
