<?xml version="1.0" encoding="utf-8"?>
<!-- Generator: Adobe Illustrator 24.0.1, SVG Export Plug-In . SVG Version: 6.00 Build 0)  -->
<svg version="1.1" xmlns="http://www.w3.org/2000/svg" xmlns:xlink="http://www.w3.org/1999/xlink" x="0px" y="0px"
	 viewBox="0 0 600 600" style="enable-background:new 0 0 600 600;" xml:space="preserve">
<style type="text/css">
	.st0{fill:#218BB8;}
	.st1{fill-rule:evenodd;clip-rule:evenodd;fill:#218BB8;}
	.st2{fill:#F5F9FD;}
	.st3{fill:#A9C9DD;}
	.st4{fill:#C8DAEA;}
</style>
<g id="Livello_1">
</g>
<g id="Livello_2">
</g>
<g id="Livello_3">
</g>
<g id="Livello_4">
	<g id="XMLID_1003_">
		<circle id="XMLID_397_" class="st0 bg" cx="300" cy="300" r="300"/>
		<g id="XMLID_477_">
			<g id="XMLID_482_">
				<defs>
					<circle id="XMLID_483_" cx="297.7" cy="300.8" r="294.7"/>
				</defs>
				<clipPath id="XMLID_2_">
					<use xlink:href="#XMLID_483_"  style="overflow:visible;"/>
				</clipPath>
			</g>
		</g>
		<g id="XMLID_469_">
			<g id="XMLID_470_">
				<path id="XMLID_474_" class="st2" d="M430.7,159.5L119.4,276.9c-11.9,4.5-11.1,21.5,1.1,24.9l108.9,30.6
					c1.4,0.4,2.8,1.1,3.9,2.1l128.4,103.4c12.2,10.3,31,3.7,34.1-11.9l48.9-254.5C446.3,163.3,438.4,156.6,430.7,159.5z"/>
				<path id="XMLID_473_" class="st3" d="M251,422.2l39-42.1l-46-37l-10,83.2C239.7,428.3,246.4,427.2,251,422.2z"/>
				<path id="XMLID_471_" class="st4" d="M375.6,213.5L196,323l28.4,93.1c1.6,5.1,5.3,8.6,9.6,10.2l10-83.2l134.7-125.4
					C381,215.5,378.3,211.9,375.6,213.5z"/>
			</g>
		</g>
		<g id="XMLID_462_">
			<g id="XMLID_467_">
				<defs>
					<circle id="XMLID_468_" cx="297.7" cy="300.8" r="294.7"/>
				</defs>
				<clipPath id="XMLID_3_">
					<use xlink:href="#XMLID_468_"  style="overflow:visible;"/>
				</clipPath>
			</g>
		</g>
	</g>
</g>
<g id="Livello_5">
</g>
<g id="Livello_6">
</g>
</svg>
